<?xml version="1.0" encoding="UTF-8"?>
<svg id="Layer_1" data-name="Layer 1" xmlns="http://www.w3.org/2000/svg" width="291.595" height="84.653" viewBox="0 0 291.595 84.653">
  <g id="Fedora">
    <path id="Cut" d="M272.034,25.287c-3.819,0-7.619.622-11.514,1.878-.105-.072-.202-.153-.311-.22-2.32-1.426-4.672-1.686-6.867-1.753-1.949-.06-3.832.257-5.599.825-.594-.151-1.217-.232-1.858-.232h-8.422c-2.526,0-4.754,1.252-6.113,3.165-3.6-2.317-7.981-3.662-12.758-3.662-4.18,0-8.054,1.033-11.37,2.842v-4.594c0-2.18-.949-4.253-2.6-5.677-1.65-1.425-3.84-2.064-5.996-1.742l-8.422,1.244c-3.679.543-6.404,3.701-6.404,7.419v.663c-6.047.12-11.411,2.505-15.247,6.325-3.831-4.006-9.232-6.429-15.409-6.429-1.72,0-3.38.201-4.977.548v-1.106c0-4.142-3.357-7.5-7.5-7.5h-28.904c-4.143,0-7.5,3.358-7.5,7.5v24.438c-2.69-4.783-7.205-9.064-13.124-12.278l-.265-1.13c-.018-.073-.036-.146-.056-.219l-3.56-15.461c-1.517-6.279-4.214-9.311-11.484-12.946-2.184-1.116-15.396-7.183-21.351-7.183-3.771,0-6.301,1.927-7.736,3.212-.147-.071-.292-.142-.425-.207-1.796-.88-4.255-2.086-7.481-2.086-4.271,0-10.047,1.911-13.322,11.04-.64,1.804-3.679,10.382-4.527,12.935-3.328.378-6.904,1.079-10.122,2.468C3.839,30.372,0,35.981,0,43.159c0,13.856,16.059,24.337,25.631,29.351,14.516,7.604,31.905,12.144,46.517,12.144,11.668,0,20.666-2.585,26.746-7.684,3.84-3.221,6.417-7.403,7.539-12.096,1.359,1.374,3.245,2.226,5.33,2.226h8.941c4.143,0,7.5-3.358,7.5-7.5v-6.229h4.28c2.979,8.358,11.265,14.227,21.283,14.227,6.118,0,11.176-1.731,15.892-5.415,3.786,3.28,8.787,5.265,14.362,5.265,1.788,0,3.541-.225,5.227-.663.683.205,1.406.314,2.156.314h8.317c2.523,0,4.749-1.249,6.109-3.159,3.6,2.313,7.983,3.656,12.761,3.656s9.162-1.344,12.762-3.657c1.359,1.91,3.586,3.159,6.109,3.159h8.422c3.847,0,7.013-2.897,7.445-6.628,3.002,4.349,8.349,7.076,14.856,7.076,2.049,0,3.96-.223,5.755-.674.587.148,1.202.227,1.836.227h8.317c4.143,0,7.5-3.358,7.5-7.5v-16.863c0-10.6-7.678-17.449-19.561-17.449Z" style="fill: #fff;"/>
    <g id="Fedora-2" data-name="Fedora">
      <g>
        <path d="M111.763,24.779h28.904v7.412h-19.963v6.516h13.309v7.163h-13.309v13.729h-8.941V24.779Z" style="fill: #52a2d9;"/>
        <path d="M138.795,46.467c0-7.661,6.29-13.63,14.349-13.63s13.88,6.069,13.88,14.376v1.99h-19.599c1.092,2.487,3.587,4.179,6.758,4.179,2.288,0,4.211-.697,5.511-1.99l5.562,4.726c-3.482,2.786-6.914,3.979-11.488,3.979-8.422,0-14.973-5.969-14.973-13.63ZM158.758,43.582c-.884-2.537-3.067-4.178-5.771-4.178-2.808,0-4.887,1.542-5.719,4.178h11.489Z" style="fill: #52a2d9;"/>
        <path d="M169.985,46.417c0-7.561,6.29-13.48,14.297-13.48,2.547,0,4.938.597,7.018,1.741v-9.899l8.422-1.244v36.064h-8.317v-1.94c-2.132,1.492-4.679,2.288-7.383,2.288-7.85,0-14.036-5.969-14.036-13.53ZM191.3,50.994v-9.203c-1.455-1.293-3.535-2.04-5.822-2.04-4.107,0-7.227,2.885-7.227,6.666s3.172,6.666,7.227,6.666c2.339,0,4.314-.696,5.822-2.089Z" style="fill: #52a2d9;"/>
        <path d="M203.672,46.467c0-7.661,6.551-13.68,14.92-13.68s14.921,6.019,14.921,13.68-6.551,13.63-14.921,13.63-14.92-5.969-14.92-13.63ZM225.299,46.467c0-3.781-2.964-6.715-6.707-6.715s-6.706,2.935-6.706,6.715c0,3.731,2.911,6.666,6.706,6.666s6.707-2.935,6.707-6.666Z" style="fill: #52a2d9;"/>
        <path d="M237.463,33.285h8.422v2.637c1.819-2.089,4.263-3.233,7.226-3.233,1.612.05,2.443.199,3.172.646v7.014c-1.092-.497-2.548-.796-4.003-.796-2.651,0-4.991,1.244-6.395,3.333v16.714h-8.422v-26.314Z" style="fill: #52a2d9;"/>
        <path d="M258.205,51.889c0-5.024,4.159-7.909,11.333-7.909,2.132,0,4.211.249,6.239.746v-1.293c0-2.637-1.768-3.93-5.251-3.93-2.184,0-4.73.647-8.318,2.089l-3.015-5.919c4.471-1.94,8.63-2.885,12.841-2.885,7.642,0,12.061,3.631,12.061,9.949v16.863h-8.317v-1.592c-2.236,1.442-4.627,2.04-7.591,2.04-5.874,0-9.981-3.333-9.981-8.158ZM270.526,54.376c2.027,0,3.795-.398,5.251-1.244v-3.382c-1.612-.398-3.275-.597-4.991-.597-2.911,0-4.575.945-4.575,2.587s1.612,2.636,4.315,2.636Z" style="fill: #52a2d9;"/>
      </g>
      <g>
        <path d="M68.916,47.643c6.051,0,14.806-1.248,14.806-8.445.018-.555-.032-1.111-.15-1.654l-3.604-15.653c-.832-3.444-1.562-5.006-7.609-8.03-4.692-2.399-14.913-6.361-17.936-6.361-2.815,0-3.633,3.628-6.99,3.628-3.231,0-5.63-2.709-8.653-2.709-2.902,0-4.794,1.978-6.254,6.046,0,0-4.068,11.473-4.59,13.137-.083.306-.119.622-.106.938,0,4.46,17.559,19.082,41.086,19.082M84.651,42.119c.837,3.962.837,4.378.837,4.9,0,6.772-7.614,10.53-17.621,10.53-22.618.015-42.431-13.239-42.431-21.999-.001-1.219.247-2.426.73-3.546-8.136.406-18.666,1.857-18.666,11.154,0,15.227,36.08,33.995,64.647,33.995,21.902,0,27.426-9.906,27.426-17.728,0-6.153-5.321-13.137-14.913-17.307" style="fill: #52a2d9;"/>
        <path d="M84.651,42.119c.837,3.962.837,4.378.837,4.9,0,6.772-7.614,10.53-17.621,10.53-22.618.015-42.431-13.239-42.431-21.999-.001-1.219.247-2.426.73-3.546l1.77-4.382c-.081.299-.117.609-.106.919,0,4.46,17.559,19.082,41.086,19.082,6.051,0,14.806-1.248,14.806-8.445.018-.555-.032-1.111-.15-1.654l1.079,4.595Z" style="fill: #fff;"/>
      </g>
    </g>
  </g>
</svg>